# This file uses centimeters as units for non-parametric coordinates.

v -0.559231 0.007777 -66.870353
v -0.676181 0.007761 -67.671589
v -0.543889 0.007842 -66.087120
v -0.854547 0.007715 -68.478004
v -0.792913 0.002640 -66.977802
v -0.667494 0.008034 -65.319381
v -1.104933 0.007684 -69.267925
v -0.989729 0.002640 -67.729412
v -0.866434 0.002632 -66.283306
v -1.068155 0.002632 -68.469471
v -0.894392 0.002632 -65.521083
v -1.441046 0.007706 -70.026493
v -0.887717 0.008170 -64.583889
v -1.377699 0.002640 -69.177547
v -1.613285 0.002632 -69.910709
v -1.182547 0.002625 -64.909877
v -1.861202 0.007757 -70.749385
v -1.856173 0.000015 -67.267650
v -1.156844 0.008245 -63.912658
v -2.056171 0.000023 -68.351513
v -2.281261 0.000031 -67.837696
v -2.204105 0.000023 -66.897472
v -2.065859 0.002617 -70.525394
v -1.929876 0.000015 -66.209407
v -1.350485 0.002625 -64.210361
v -2.362437 0.007833 -71.430641
v -2.534716 0.000031 -68.778690
v -1.470954 0.008323 -63.352016
v -2.452293 0.000023 -69.398830
v -2.470793 0.002625 -71.217403
v -2.261145 0.000015 -65.257373
v -1.714088 0.002632 -63.779903
v -2.928857 0.007942 -72.048816
v -3.036535 0.002625 -71.707065
v -2.406212 0.000015 -66.005916
v -2.982195 0.000015 -69.655178
v -1.823948 0.008382 -62.945423
v -1.985872 0.002640 -63.279796
v -3.075384 0.000015 -70.348316
v -3.571707 0.002632 -72.291378
v -3.612589 0.000015 -70.422466
v -3.544474 0.008072 -72.583393
v -2.275607 0.008493 -62.685676
v -2.751841 0.000023 -65.274044
v -2.722006 0.000031 -64.582088
v -2.488894 0.002632 -63.136585
v -3.875305 0.000023 -71.128666
v -4.670506 0.000046 -68.046260
v -4.196310 0.002640 -72.604877
v -4.202218 0.008198 -73.034427
v -2.917105 0.008552 -62.569431
v -3.259489 0.000023 -64.857158
v -4.366508 0.000023 -71.006481
v -3.058020 0.002632 -62.911968
v -4.830507 0.002640 -73.053852
v -3.499504 0.000023 -64.315517
v -4.894348 0.008324 -73.400608
v -3.666657 0.008475 -62.608547
v -4.789837 0.000031 -71.682628
v -3.788994 0.002663 -63.067447
v -4.097651 0.000031 -64.812160
v -5.192379 0.000031 -71.381984
v -5.468914 0.002640 -73.183788
v -5.597378 0.008470 -73.667862
v -4.426829 0.008377 -62.801345
v -4.483765 0.002663 -63.133052
v -4.990274 0.000023 -65.116588
v -4.534412 0.000031 -64.476123
v -5.736403 0.000023 -71.970554
v -5.965416 0.000038 -71.440563
v -6.134933 0.002647 -73.450412
v -6.279677 0.008589 -73.816223
v -5.165131 0.002663 -63.538761
v -5.774137 0.000031 -65.666759
v -5.167386 0.008252 -63.120864
v -6.486593 0.000038 -70.936878
v -6.666626 0.002655 -73.283565
v -6.855263 0.008445 -73.768928
v -6.841038 0.000046 -70.154605
v -5.505571 0.000031 -64.977398
v -6.320766 0.000038 -65.728771
v -6.484743 0.000031 -71.713291
v -5.820818 0.002663 -63.823162
v -6.399921 0.000046 -66.417888
v -7.013224 0.000038 -69.250415
v -6.794577 0.000046 -67.306926
v -5.855934 0.008122 -63.537963
v -7.167503 0.002655 -73.095325
v -6.965694 0.000053 -68.278102
v -6.370840 0.002663 -64.385112
v -7.303554 0.008396 -73.464531
v -7.465506 0.002663 -72.496959
v -6.973358 0.000031 -70.931285
v -6.487424 0.008006 -64.047195
v -6.942965 0.002663 -64.857448
v -7.687725 0.008336 -72.952770
v -7.284410 0.000038 -69.954738
v -6.912237 0.000053 -66.675823
v -8.011723 0.002663 -71.291103
v -7.841131 0.002655 -72.017665
v -7.221439 0.000046 -67.749843
v -7.335209 0.002663 -65.541683
v -7.056980 0.007901 -64.644874
v -8.278318 0.002670 -69.900173
v -7.757153 0.002670 -66.161129
v -8.019991 0.008230 -72.329864
v -7.942093 0.002686 -66.909534
v -8.355558 0.002663 -69.185489
v -7.347040 0.000046 -68.873592
v -8.201014 0.002663 -68.404201
v -8.182735 0.002678 -67.639232
v -8.269321 0.002670 -70.673381
v -8.286853 0.008098 -71.633278
v -7.543510 0.007811 -65.314148
v -8.478585 0.007958 -70.889972
v -7.927393 0.007755 -66.038894
v -8.578446 0.007801 -70.109829
v -8.572447 0.007749 -69.296104
v -8.207656 0.007718 -66.810485
v -8.495963 0.007766 -68.459270
v -8.385318 0.007729 -67.622280
v -0.794249 0.702637 -66.978328
v -0.573122 0.707637 -66.867538
v -0.690054 0.707620 -67.669292
v -0.991419 0.702637 -67.728611
v -0.868063 0.707567 -68.472976
v -1.069759 0.702629 -68.469661
v -0.868134 0.702629 -66.283008
v -0.556929 0.707725 -66.087593
v -1.118384 0.707536 -69.262775
v -1.379160 0.702637 -69.176525
v -0.895321 0.702629 -65.521953
v -0.680164 0.707916 -65.320663
v -1.452939 0.707558 -70.018749
v -1.615032 0.702637 -69.910518
v -1.184238 0.702629 -64.909900
v -0.898579 0.708075 -64.587986
v -1.873043 0.707608 -70.741550
v -2.066975 0.702614 -70.524158
v -1.857508 0.700020 -67.268169
v -2.281258 0.700027 -67.837688
v -2.057775 0.700020 -68.351711
v -2.534714 0.700027 -68.778698
v -2.204103 0.700027 -66.897457
v -1.930805 0.700012 -66.210277
v -1.350979 0.702621 -64.211422
v -1.168148 0.708142 -63.916259
v -2.371824 0.707708 -71.421058
v -2.472479 0.702621 -71.216785
v -2.406195 0.700012 -66.005916
v -2.452295 0.700020 -69.398830
v -2.982195 0.700012 -69.655193
v -1.479653 0.708236 -63.357929
v -1.715641 0.702637 -63.780231
v -2.261637 0.700012 -65.258434
v -3.037210 0.702629 -71.705730
v -2.938203 0.707810 -72.039196
v -3.075377 0.700012 -70.348308
v -4.670507 0.700043 -68.046260
v -1.832595 0.708303 -62.951389
v -1.985710 0.702637 -63.281078
v -2.751837 0.700020 -65.274044
v -3.571922 0.702637 -72.290088
v -3.550728 0.707961 -72.572902
v -3.612579 0.700012 -70.422466
v -2.279368 0.708429 -62.694435
v -2.491442 0.702568 -63.145885
v -2.721844 0.700027 -64.583362
v -3.260307 0.700020 -64.858013
v -3.875296 0.700027 -71.128673
v -4.197565 0.702637 -72.603702
v -4.208636 0.708088 -73.023975
v -2.919653 0.708488 -62.578731
v -3.056625 0.702553 -62.922496
v -4.366499 0.700020 -71.006481
v -3.498835 0.700020 -64.316845
v -4.830320 0.702637 -73.052715
v -4.897455 0.708245 -73.390209
v -3.665265 0.708395 -62.619068
v -3.787071 0.702576 -63.078060
v -4.789829 0.700027 -71.682628
v -4.097933 0.700027 -64.813320
v -5.192369 0.700027 -71.381984
v -5.469839 0.702637 -73.182483
v -5.600603 0.708391 -73.657447
v -4.424908 0.708290 -62.811950
v -4.478306 0.702553 -63.143764
v -4.533291 0.700027 -64.477336
v -4.990107 0.700027 -65.117900
v -5.736393 0.700020 -71.970562
v -6.134144 0.702644 -73.449565
v -5.965406 0.700043 -71.440563
v -6.277993 0.708525 -73.807098
v -5.159550 0.702560 -63.549450
v -6.666733 0.702652 -73.282390
v -5.772663 0.700027 -65.667720
v -5.505405 0.700027 -64.978725
v -5.161927 0.708150 -63.131569
v -6.486040 0.700043 -70.935878
v -6.483137 0.700027 -71.712947
v -6.850928 0.708389 -73.760818
v -6.840055 0.700043 -70.153774
v -6.971600 0.700027 -70.931255
v -6.320122 0.700035 -65.730114
v -6.398218 0.700043 -66.418468
v -7.165899 0.702652 -73.094982
v -5.812000 0.702538 -63.832912
v -7.013214 0.700043 -69.250423
v -7.282574 0.700035 -69.955066
v -6.792767 0.700043 -67.307010
v -6.911114 0.700050 -66.677013
v -5.850353 0.708020 -63.548652
v -6.963930 0.700050 -68.278797
v -7.219904 0.700050 -67.750721
v -7.294284 0.708309 -73.458870
v -6.361801 0.702538 -64.394741
v -7.456442 0.702576 -72.491161
v -7.829407 0.702545 -72.014057
v -6.478608 0.707880 -64.056945
v -6.933924 0.702538 -64.867076
v -7.678667 0.708257 -72.946972
v -7.323446 0.702515 -65.549335
v -8.000189 0.702560 -71.287304
v -8.255806 0.702538 -70.672420
v -8.008266 0.708120 -72.326255
v -7.744997 0.702522 -66.168392
v -7.047941 0.707776 -64.654518
v -8.264635 0.702538 -69.899555
v -7.928144 0.702530 -66.913799
v -8.168653 0.702522 -67.643047
v -8.341053 0.702515 -69.187572
v -7.347031 0.700043 -68.873592
v -8.186596 0.702515 -68.405353
v -7.531747 0.707671 -65.321800
v -8.275321 0.707996 -71.629478
v -7.915237 0.707615 -66.046157
v -8.465070 0.707825 -70.889011
v -8.564763 0.707668 -70.109203
v -8.193707 0.707570 -66.814750
v -8.557941 0.707594 -69.298187
v -8.371234 0.707581 -67.626087
v -8.481545 0.707618 -68.460422
v 6.224399 0.008413 -73.868667
v 5.542193 0.008323 -73.720108
v 6.800113 0.008472 -73.821304
v 4.839145 0.008218 -73.453037
v 6.079777 0.002682 -73.502788
v 7.248238 0.008646 -73.516925
v 4.147078 0.008085 -73.086700
v 6.611465 0.002705 -73.335945
v 5.413761 0.002666 -73.236148
v 4.775356 0.002666 -73.106216
v 3.489277 0.007969 -72.635791
v 4.141155 0.002659 -72.657230
v 7.632629 0.008576 -73.005268
v 7.112343 0.002712 -73.147712
v 2.873724 0.007845 -72.101112
v 5.681263 0.000050 -72.022922
v 3.516556 0.002644 -72.343727
v 4.734703 0.000042 -71.734981
v 7.410358 0.002705 -72.549347
v 6.429600 0.000057 -71.765667
v 7.964751 0.008407 -72.382248
v 2.981388 0.002628 -71.759407
v 2.307260 0.007753 -71.482978
v 3.820171 0.000027 -71.181011
v 5.137245 0.000050 -71.434345
v 5.910282 0.000065 -71.492931
v 2.415653 0.002621 -71.269741
v 7.785992 0.002697 -72.070057
v 4.311371 0.000027 -71.058834
v 1.806065 0.007697 -70.801700
v 8.231787 0.008272 -71.685707
v 3.020252 0.000004 -70.400657
v 6.918228 0.000065 -70.983669
v 6.431461 0.000065 -70.989261
v 3.557461 0.000011 -70.474807
v 2.010719 0.002613 -70.577724
v 7.956585 0.002697 -71.343486
v 1.558155 0.002613 -69.963035
v 8.423382 0.008121 -70.942340
v 1.385903 0.007667 -70.078807
v 2.927067 0.000004 -69.707512
v 1.049790 0.007663 -69.320198
v 8.214188 0.002705 -70.725776
v 6.785912 0.000065 -70.206981
v 2.397179 0.000011 -69.451168
v 4.615402 0.000042 -68.098625
v 7.229286 0.000065 -70.007118
v 8.523367 0.007971 -70.162273
v 1.322586 0.002621 -69.229877
v 8.223194 0.002689 -69.952579
v 2.479603 0.000011 -68.831035
v 1.013042 0.002605 -68.521801
v 0.799450 0.007711 -68.530311
v 6.958103 0.000057 -69.302795
v 8.517276 0.007875 -69.348522
v 2.001060 -0.000004 -68.403850
v 7.291935 0.000057 -68.925987
v 8.300438 0.002697 -69.237884
v 0.934624 0.002605 -67.781730
v 2.226158 0.000004 -67.890022
v 0.621021 0.007786 -67.723884
v 6.910587 0.000057 -68.330490
v 8.440892 0.007820 -68.511718
v 8.145901 0.002689 -68.456592
v 0.737812 0.002598 -67.030117
v 1.801067 -0.000011 -67.319976
v 2.149010 -0.000004 -66.949802
v 0.504177 0.007858 -66.922626
v 7.166336 0.000065 -67.802230
v 6.739479 0.000057 -67.359310
v 8.127628 0.002697 -67.691627
v 8.330198 0.007749 -67.674678
v 0.811340 0.002583 -66.335613
v 2.351124 -0.000019 -66.058246
v 0.488757 0.007951 -66.139377
v 1.874783 -0.000027 -66.261730
v 7.887001 0.002682 -66.961925
v 8.152564 0.007700 -66.862934
v 0.839294 0.002575 -65.573406
v 5.719051 0.000027 -65.719127
v 6.344845 0.000034 -66.470264
v 6.857155 0.000042 -66.728214
v 0.612467 0.008084 -65.371704
v 2.696758 -0.000011 -65.326381
v 3.204411 -0.000011 -64.909504
v 4.935200 0.000011 -65.168956
v 1.127464 0.002575 -64.962192
v 7.702061 0.002674 -66.213512
v 4.042576 0.000011 -64.864521
v 7.872336 0.007705 -66.091301
v 7.280125 0.002666 -65.594066
v 2.206062 -0.000027 -65.309703
v 0.832577 0.008220 -64.636139
v 6.265678 0.000034 -65.781139
v 7.488428 0.007744 -65.366588
v 1.295406 0.002583 -64.262691
v 2.666935 -0.000019 -64.634426
v 1.659012 0.002598 -63.832225
v 5.450500 0.000019 -65.029766
v 6.887886 0.002659 -64.909832
v 6.315773 0.002636 -64.437488
v 3.444439 -0.000011 -64.367862
v 4.479336 0.000004 -64.528484
v 1.101871 0.008321 -63.964996
v 2.433830 0.002583 -63.188930
v 7.001950 0.007816 -64.697265
v 5.110058 0.002636 -63.591137
v 1.930805 0.002590 -63.332134
v 3.733932 0.002605 -63.119793
v 5.765747 0.002644 -63.875530
v 1.415840 0.008428 -63.404232
v 6.432351 0.007890 -64.099643
v 3.002960 0.002590 -62.964313
v 4.428699 0.002628 -63.185421
v 1.769026 0.008445 -62.997703
v 5.800911 0.007988 -63.590282
v 2.220547 0.008401 -62.738014
v 5.112325 0.008107 -63.173305
v 2.862092 0.008381 -62.621727
v 4.371814 0.008206 -62.853649
v 3.611619 0.008292 -62.660949
v 6.078972 0.702686 -73.501945
v 6.227607 0.708333 -73.858253
v 5.545290 0.708244 -73.709713
v 5.414673 0.702663 -73.234836
v 6.611568 0.702702 -73.334751
v 6.798427 0.708416 -73.812187
v 4.845557 0.708116 -73.442581
v 4.775173 0.702663 -73.105079
v 4.153318 0.707983 -73.076217
v 4.142399 0.702656 -72.656047
v 7.243923 0.708582 -73.508815
v 7.110733 0.702702 -73.147365
v 3.498623 0.707843 -72.626163
v 3.516769 0.702641 -72.342437
v 7.623359 0.708497 -72.999603
v 7.409801 0.702702 -72.548343
v 5.680462 0.700047 -72.022079
v 5.137230 0.700047 -71.434352
v 5.910275 0.700069 -71.492935
v 2.883108 0.707720 -72.091514
v 2.982899 0.702625 -71.758453
v 4.734688 0.700047 -71.734981
v 4.311356 0.700031 -71.058834
v 6.427986 0.700054 -71.765319
v 7.955676 0.708328 -72.376445
v 7.784225 0.702694 -72.070015
v 3.820156 0.700031 -71.181011
v 6.431458 0.700069 -70.989257
v 2.416325 0.702618 -71.268409
v 2.319097 0.707605 -71.475151
v 3.557446 0.700016 -70.474807
v 1.817956 0.707549 -70.793941
v 2.011822 0.702610 -70.576484
v 8.220057 0.708162 -71.682090
v 7.945053 0.702595 -71.339687
v 4.615402 0.700047 -68.098613
v 3.020237 0.700008 -70.400657
v 6.916466 0.700062 -70.983627
v 2.927063 0.700001 -69.707527
v 6.784927 0.700062 -70.206134
v 1.559895 0.702618 -69.962848
v 1.399346 0.707511 -70.073646
v 8.411854 0.708018 -70.938541
v 8.200661 0.702572 -70.724807
v 2.397175 0.700008 -69.451183
v 1.063286 0.707515 -69.315162
v 1.324039 0.702618 -69.228851
v 7.227451 0.700062 -70.007442
v 8.509844 0.707839 -70.161304
v 8.209492 0.702557 -69.951965
v 2.479591 0.700016 -68.831035
v 6.956699 0.700054 -69.302265
v 1.014641 0.702602 -68.521988
v 0.813305 0.707563 -68.528011
v 2.001045 0.700001 -68.403850
v 8.503573 0.707734 -69.347908
v 8.285946 0.702541 -69.239948
v 7.290154 0.700054 -68.926681
v 0.936306 0.702595 -67.780925
v 0.634903 0.707638 -67.721065
v 2.226143 0.700001 -67.890022
v 6.908909 0.700054 -68.330188
v 8.426400 0.707664 -68.513786
v 8.131485 0.702534 -68.457748
v 0.739136 0.702595 -67.030635
v 0.517227 0.707733 -66.923099
v 1.801052 0.699986 -67.319973
v 2.149002 0.699993 -66.949787
v 7.164803 0.700062 -67.803096
v 8.113533 0.702541 -67.695415
v 6.737667 0.700054 -67.359390
v 8.315786 0.707601 -67.675838
v 0.813042 0.702579 -66.335323
v 0.501452 0.707842 -66.140659
v 2.351105 0.699986 -66.058254
v 1.875706 0.699970 -66.262600
v 0.840218 0.702572 -65.574276
v 7.873058 0.702526 -66.966182
v 8.138465 0.707544 -66.866726
v 0.623328 0.707989 -65.375824
v 6.343704 0.700031 -66.471447
v 5.718395 0.700024 -65.720455
v 6.263973 0.700031 -65.781734
v 6.856014 0.700047 -66.729404
v 7.689926 0.702534 -66.220768
v 3.205212 0.699986 -64.910358
v 2.697250 0.699986 -65.327449
v 2.666759 0.699978 -64.635723
v 4.935024 0.700008 -65.170269
v 5.449036 0.700016 -65.030719
v 1.138756 0.702473 -64.965801
v 7.858397 0.707557 -66.095558
v 4.042847 0.700008 -64.865673
v 3.443779 0.699993 -64.369182
v 4.478214 0.700001 -64.529689
v 7.267990 0.702518 -65.601322
v 2.206039 0.699978 -65.309719
v 1.304089 0.702503 -64.268581
v 0.843869 0.708117 -64.639740
v 6.876114 0.702518 -64.917476
v 7.476293 0.707604 -65.373844
v 1.667652 0.702518 -63.838176
v 1.110557 0.708242 -63.970893
v 6.306709 0.702511 -64.447124
v 1.934555 0.702526 -63.340877
v 5.756916 0.702518 -63.885295
v 6.990178 0.707676 -64.704910
v 2.436367 0.702518 -63.198223
v 1.424476 0.708349 -63.410183
v 5.104473 0.702534 -63.601833
v 3.001568 0.702511 -62.974834
v 4.423218 0.702526 -63.196132
v 3.732002 0.702526 -63.130413
v 6.423291 0.707765 -64.109279
v 1.772776 0.708381 -63.006446
v 5.792084 0.707871 -63.600048
v 2.223083 0.708336 -62.747306
v 5.106736 0.707997 -63.184002
v 4.366332 0.708096 -62.864360
v 2.860700 0.708301 -62.632248
v 3.609689 0.708205 -62.671562
vt 0.376043 0.219406
vt 0.363815 0.225967
vt 0.354606 0.203715
vt 0.370686 0.197960
vt 0.348985 0.180268
vt 0.362511 0.177663
vt 0.390074 0.236119
vt 0.376369 0.246498
vt 0.347067 0.156229
vt 0.363944 0.155566
vt 0.401791 0.254822
vt 0.392026 0.264782
vt 0.348965 0.132199
vt 0.362478 0.133744
vt 0.420393 0.266339
vt 0.410345 0.280409
vt 0.354581 0.108764
vt 0.370649 0.113205
vt 0.410090 0.200414
vt 0.416145 0.181150
vt 0.400264 0.170096
vt 0.411767 0.153622
vt 0.428730 0.205923
vt 0.428784 0.226126
vt 0.437278 0.280527
vt 0.430886 0.292967
vt 0.363818 0.086505
vt 0.376049 0.092008
vt 0.448413 0.225535
vt 0.400237 0.138194
vt 0.416119 0.126115
vt 0.453051 0.302173
vt 0.458431 0.285728
vt 0.454557 0.244786
vt 0.390125 0.075012
vt 0.376402 0.065959
vt 0.410095 0.107882
vt 0.500000 0.150514
vt 0.476241 0.307745
vt 0.478476 0.293979
vt 0.473083 0.238114
vt 0.401843 0.056549
vt 0.392059 0.047662
vt 0.428766 0.101319
vt 0.499978 0.309615
vt 0.499968 0.292322
vt 0.484416 0.254542
vt 0.499981 0.242387
vt 0.428828 0.082133
vt 0.420425 0.044765
vt 0.410366 0.032030
vt 0.523787 0.307719
vt 0.521567 0.293937
vt 0.448437 0.081686
vt 0.515621 0.254507
vt 0.437300 0.030842
vt 0.430900 0.019477
vt 0.547071 0.302127
vt 0.541755 0.285656
vt 0.454575 0.063473
vt 0.527052 0.238061
vt 0.473107 0.069119
vt 0.458460 0.025393
vt 0.453070 0.010277
vt 0.569239 0.292912
vt 0.562919 0.280440
vt 0.545610 0.244712
vt 0.551684 0.225465
vt 0.484471 0.053721
vt 0.478541 0.017396
vt 0.500006 0.064828
vt 0.476282 0.004702
vt 0.579734 0.266247
vt 0.500009 0.018775
vt 0.571296 0.205837
vt 0.571272 0.226036
vt 0.589737 0.280349
vt 0.526853 0.069099
vt 0.515520 0.053709
vt 0.500006 0.002819
vt 0.551507 0.081648
vt 0.545363 0.063441
vt 0.589949 0.200315
vt 0.583899 0.181082
vt 0.521447 0.017383
vt 0.598276 0.254715
vt 0.571168 0.101260
vt 0.571103 0.082073
vt 0.588221 0.153625
vt 0.599765 0.170064
vt 0.608017 0.264715
vt 0.583814 0.126089
vt 0.599711 0.138193
vt 0.523711 0.004694
vt 0.609957 0.236005
vt 0.541484 0.025367
vt 0.562627 0.030804
vt 0.623651 0.246424
vt 0.624003 0.219288
vt 0.546894 0.010260
vt 0.629376 0.197867
vt 0.579502 0.044714
vt 0.598076 0.056477
vt 0.569054 0.019453
vt 0.637524 0.177624
vt 0.636215 0.225892
vt 0.609788 0.074934
vt 0.636040 0.155573
vt 0.637460 0.133743
vt 0.623853 0.091942
vt 0.589823 0.107826
vt 0.629262 0.113170
vt 0.645434 0.203654
vt 0.589587 0.031997
vt 0.651037 0.180244
vt 0.607890 0.047617
vt 0.623541 0.065908
vt 0.652923 0.156234
vt 0.636120 0.086463
vt 0.650996 0.132199
vt 0.645361 0.108741
vt 0.376043 0.219406
vt 0.370686 0.197960
vt 0.354606 0.203715
vt 0.363815 0.225967
vt 0.362511 0.177663
vt 0.348985 0.180268
vt 0.390074 0.236119
vt 0.376369 0.246498
vt 0.363944 0.155566
vt 0.347067 0.156229
vt 0.401791 0.254822
vt 0.392026 0.264782
vt 0.362478 0.133744
vt 0.348965 0.132199
vt 0.420393 0.266339
vt 0.410345 0.280409
vt 0.370649 0.113205
vt 0.354581 0.108764
vt 0.410090 0.200414
vt 0.416145 0.181150
vt 0.400264 0.170096
vt 0.411767 0.153622
vt 0.428730 0.205923
vt 0.428784 0.226126
vt 0.437278 0.280527
vt 0.430886 0.292967
vt 0.376049 0.092008
vt 0.363818 0.086505
vt 0.448413 0.225535
vt 0.400237 0.138194
vt 0.416119 0.126115
vt 0.453051 0.302173
vt 0.458431 0.285728
vt 0.454557 0.244786
vt 0.390125 0.075012
vt 0.376402 0.065959
vt 0.410095 0.107882
vt 0.500000 0.150514
vt 0.476241 0.307745
vt 0.478476 0.293979
vt 0.473083 0.238114
vt 0.401843 0.056549
vt 0.392059 0.047662
vt 0.428766 0.101319
vt 0.499978 0.309615
vt 0.499968 0.292322
vt 0.484416 0.254542
vt 0.499981 0.242387
vt 0.428828 0.082133
vt 0.420425 0.044765
vt 0.410366 0.032030
vt 0.523787 0.307719
vt 0.521567 0.293937
vt 0.448437 0.081686
vt 0.515621 0.254507
vt 0.437300 0.030842
vt 0.430900 0.019477
vt 0.547071 0.302127
vt 0.541755 0.285656
vt 0.454575 0.063473
vt 0.527052 0.238061
vt 0.473107 0.069119
vt 0.458460 0.025393
vt 0.453070 0.010277
vt 0.569239 0.292912
vt 0.562919 0.280440
vt 0.545610 0.244712
vt 0.551684 0.225465
vt 0.484471 0.053721
vt 0.478541 0.017396
vt 0.500006 0.064828
vt 0.476282 0.004702
vt 0.579734 0.266247
vt 0.500009 0.018775
vt 0.571272 0.226036
vt 0.571296 0.205837
vt 0.589737 0.280349
vt 0.526853 0.069099
vt 0.515520 0.053709
vt 0.500006 0.002819
vt 0.551507 0.081648
vt 0.545363 0.063441
vt 0.589949 0.200315
vt 0.583899 0.181082
vt 0.521447 0.017383
vt 0.598276 0.254715
vt 0.571168 0.101260
vt 0.571103 0.082073
vt 0.599765 0.170064
vt 0.588221 0.153625
vt 0.608017 0.264715
vt 0.599711 0.138193
vt 0.583814 0.126089
vt 0.523711 0.004694
vt 0.609957 0.236005
vt 0.541484 0.025367
vt 0.562627 0.030804
vt 0.623651 0.246424
vt 0.624003 0.219288
vt 0.546894 0.010260
vt 0.629376 0.197867
vt 0.579502 0.044714
vt 0.598076 0.056477
vt 0.569054 0.019453
vt 0.637524 0.177624
vt 0.636215 0.225892
vt 0.609788 0.074934
vt 0.636040 0.155573
vt 0.637460 0.133743
vt 0.623853 0.091942
vt 0.589823 0.107826
vt 0.629262 0.113170
vt 0.645434 0.203654
vt 0.589587 0.031997
vt 0.651037 0.180244
vt 0.607890 0.047617
vt 0.623541 0.065908
vt 0.652923 0.156234
vt 0.636120 0.086463
vt 0.650996 0.132199
vt 0.645361 0.108741
vt 0.363815 0.225967
vt 0.354606 0.203715
vt 0.348985 0.180268
vt 0.376369 0.246498
vt 0.347067 0.156229
vt 0.392026 0.264782
vt 0.348965 0.132199
vt 0.410345 0.280409
vt 0.354581 0.108764
vt 0.430886 0.292967
vt 0.363818 0.086505
vt 0.453051 0.302173
vt 0.376402 0.065959
vt 0.476241 0.307745
vt 0.392059 0.047662
vt 0.499978 0.309615
vt 0.410366 0.032030
vt 0.523787 0.307719
vt 0.430900 0.019477
vt 0.547071 0.302127
vt 0.453070 0.010277
vt 0.569239 0.292912
vt 0.476282 0.004702
vt 0.589737 0.280349
vt 0.500006 0.002819
vt 0.608017 0.264715
vt 0.523711 0.004694
vt 0.623651 0.246424
vt 0.546894 0.010260
vt 0.569054 0.019453
vt 0.636215 0.225892
vt 0.645434 0.203654
vt 0.589587 0.031997
vt 0.651037 0.180244
vt 0.607890 0.047617
vt 0.623541 0.065908
vt 0.652923 0.156234
vt 0.636120 0.086463
vt 0.650996 0.132199
vt 0.645361 0.108741
vt 0.478541 0.017396
vt 0.476282 0.004702
vt 0.453070 0.010277
vt 0.458460 0.025393
vt 0.500009 0.018775
vt 0.500006 0.002819
vt 0.430900 0.019477
vt 0.437300 0.030842
vt 0.410366 0.032030
vt 0.420425 0.044765
vt 0.523711 0.004694
vt 0.521447 0.017383
vt 0.392059 0.047662
vt 0.401843 0.056549
vt 0.546894 0.010260
vt 0.541484 0.025367
vt 0.484471 0.053721
vt 0.473107 0.069119
vt 0.500006 0.064828
vt 0.376402 0.065959
vt 0.390125 0.075012
vt 0.454575 0.063473
vt 0.448437 0.081686
vt 0.515520 0.053709
vt 0.569054 0.019453
vt 0.562627 0.030804
vt 0.428828 0.082133
vt 0.526853 0.069099
vt 0.376049 0.092008
vt 0.363818 0.086505
vt 0.428766 0.101319
vt 0.354581 0.108764
vt 0.370649 0.113205
vt 0.589587 0.031997
vt 0.579502 0.044714
vt 0.500000 0.150514
vt 0.410095 0.107882
vt 0.545363 0.063441
vt 0.416119 0.126115
vt 0.551507 0.081648
vt 0.362478 0.133744
vt 0.348965 0.132199
vt 0.607890 0.047617
vt 0.598076 0.056477
vt 0.400237 0.138194
vt 0.347067 0.156229
vt 0.363944 0.155566
vt 0.571103 0.082073
vt 0.623541 0.065908
vt 0.609788 0.074934
vt 0.411767 0.153622
vt 0.571168 0.101260
vt 0.362511 0.177663
vt 0.348985 0.180268
vt 0.400264 0.170096
vt 0.636120 0.086463
vt 0.623853 0.091942
vt 0.589823 0.107826
vt 0.370686 0.197960
vt 0.354606 0.203715
vt 0.416145 0.181150
vt 0.583814 0.126089
vt 0.645361 0.108741
vt 0.629262 0.113170
vt 0.376043 0.219406
vt 0.363815 0.225967
vt 0.410090 0.200414
vt 0.428730 0.205923
vt 0.599711 0.138193
vt 0.637460 0.133743
vt 0.588221 0.153625
vt 0.650996 0.132199
vt 0.390074 0.236119
vt 0.376369 0.246498
vt 0.448413 0.225535
vt 0.428784 0.226126
vt 0.401791 0.254822
vt 0.636040 0.155573
vt 0.652923 0.156234
vt 0.392026 0.264782
vt 0.583899 0.181082
vt 0.571296 0.205837
vt 0.589949 0.200315
vt 0.599765 0.170064
vt 0.637524 0.177624
vt 0.499981 0.242387
vt 0.473083 0.238114
vt 0.484416 0.254542
vt 0.551684 0.225465
vt 0.571272 0.226036
vt 0.420393 0.266339
vt 0.651037 0.180244
vt 0.527052 0.238061
vt 0.515621 0.254507
vt 0.545610 0.244712
vt 0.629376 0.197867
vt 0.454557 0.244786
vt 0.437278 0.280527
vt 0.410345 0.280409
vt 0.624003 0.219288
vt 0.645434 0.203654
vt 0.458431 0.285728
vt 0.430886 0.292967
vt 0.609957 0.236005
vt 0.478476 0.293979
vt 0.598276 0.254715
vt 0.636215 0.225892
vt 0.499968 0.292322
vt 0.453051 0.302173
vt 0.579734 0.266247
vt 0.521567 0.293937
vt 0.562919 0.280440
vt 0.541755 0.285656
vt 0.623651 0.246424
vt 0.476241 0.307745
vt 0.608017 0.264715
vt 0.499979 0.309615
vt 0.589737 0.280349
vt 0.569239 0.292912
vt 0.523787 0.307719
vt 0.547071 0.302127
vt 0.478541 0.017396
vt 0.458460 0.025393
vt 0.453070 0.010277
vt 0.476282 0.004702
vt 0.500009 0.018775
vt 0.500006 0.002819
vt 0.437300 0.030842
vt 0.430900 0.019477
vt 0.420425 0.044765
vt 0.410366 0.032030
vt 0.523711 0.004694
vt 0.521447 0.017383
vt 0.401843 0.056549
vt 0.392059 0.047662
vt 0.546894 0.010260
vt 0.541484 0.025367
vt 0.484471 0.053721
vt 0.473107 0.069119
vt 0.500006 0.064828
vt 0.390125 0.075012
vt 0.376402 0.065959
vt 0.454575 0.063473
vt 0.448437 0.081686
vt 0.515520 0.053709
vt 0.569054 0.019453
vt 0.562627 0.030804
vt 0.428828 0.082133
vt 0.526853 0.069099
vt 0.376049 0.092008
vt 0.363818 0.086505
vt 0.428766 0.101319
vt 0.370649 0.113205
vt 0.354581 0.108764
vt 0.589587 0.031997
vt 0.579502 0.044714
vt 0.500000 0.150514
vt 0.410095 0.107882
vt 0.545363 0.063441
vt 0.416119 0.126115
vt 0.551507 0.081648
vt 0.362478 0.133744
vt 0.348965 0.132199
vt 0.607890 0.047617
vt 0.598076 0.056477
vt 0.400237 0.138194
vt 0.363944 0.155566
vt 0.347067 0.156229
vt 0.571103 0.082073
vt 0.623541 0.065908
vt 0.609788 0.074934
vt 0.411767 0.153622
vt 0.571168 0.101260
vt 0.362511 0.177663
vt 0.348985 0.180268
vt 0.400264 0.170096
vt 0.636120 0.086463
vt 0.623853 0.091942
vt 0.589823 0.107826
vt 0.370686 0.197960
vt 0.354606 0.203715
vt 0.416145 0.181150
vt 0.583814 0.126089
vt 0.645361 0.108741
vt 0.629262 0.113170
vt 0.376043 0.219406
vt 0.363815 0.225967
vt 0.410090 0.200414
vt 0.428730 0.205923
vt 0.637460 0.133743
vt 0.599711 0.138193
vt 0.588221 0.153625
vt 0.650996 0.132199
vt 0.390074 0.236119
vt 0.376369 0.246498
vt 0.448413 0.225535
vt 0.428784 0.226126
vt 0.401791 0.254822
vt 0.636040 0.155573
vt 0.652923 0.156234
vt 0.392026 0.264782
vt 0.583899 0.181082
vt 0.589949 0.200315
vt 0.571296 0.205837
vt 0.637524 0.177624
vt 0.599765 0.170064
vt 0.499981 0.242387
vt 0.484416 0.254542
vt 0.473083 0.238114
vt 0.571272 0.226036
vt 0.551684 0.225465
vt 0.420393 0.266339
vt 0.651037 0.180244
vt 0.527052 0.238061
vt 0.515621 0.254507
vt 0.545610 0.244712
vt 0.629376 0.197867
vt 0.454557 0.244786
vt 0.437278 0.280527
vt 0.410345 0.280409
vt 0.624003 0.219288
vt 0.645434 0.203654
vt 0.458431 0.285728
vt 0.430886 0.292967
vt 0.609957 0.236005
vt 0.478476 0.293979
vt 0.598276 0.254715
vt 0.636215 0.225892
vt 0.499968 0.292322
vt 0.453051 0.302173
vt 0.579734 0.266247
vt 0.521567 0.293937
vt 0.562919 0.280440
vt 0.541755 0.285656
vt 0.623651 0.246424
vt 0.476241 0.307745
vt 0.608017 0.264715
vt 0.499979 0.309615
vt 0.589737 0.280349
vt 0.569239 0.292912
vt 0.523787 0.307719
vt 0.547071 0.302127
vt 0.476282 0.004702
vt 0.453070 0.010277
vt 0.500006 0.002819
vt 0.430900 0.019477
vt 0.410366 0.032030
vt 0.523711 0.004694
vt 0.392059 0.047662
vt 0.546894 0.010260
vt 0.376402 0.065959
vt 0.569054 0.019453
vt 0.363818 0.086505
vt 0.354581 0.108764
vt 0.589587 0.031997
vt 0.348965 0.132199
vt 0.607890 0.047617
vt 0.347067 0.156229
vt 0.623541 0.065908
vt 0.348985 0.180268
vt 0.636120 0.086463
vt 0.354606 0.203715
vt 0.645361 0.108741
vt 0.363815 0.225967
vt 0.650996 0.132199
vt 0.376369 0.246498
vt 0.652923 0.156234
vt 0.392026 0.264782
vt 0.651037 0.180244
vt 0.410345 0.280409
vt 0.645434 0.203654
vt 0.430886 0.292967
vt 0.636215 0.225892
vt 0.453051 0.302173
vt 0.623651 0.246424
vt 0.476241 0.307745
vt 0.608017 0.264715
vt 0.499979 0.309615
vt 0.589737 0.280349
vt 0.569239 0.292912
vt 0.523787 0.307719
vt 0.547071 0.302127
vn -0.006524 0.999979 0.000559
vn -0.019106 0.999817 0.000723
vn -0.020310 0.999787 0.003811
vn -0.005840 0.999982 0.001142
vn -0.019981 0.999788 0.004990
vn -0.006510 0.999977 0.001743
vn -0.005560 0.999985 -0.000255
vn -0.018349 0.999830 -0.001560
vn -0.019787 0.999776 0.007484
vn -0.005730 0.999981 0.002180
vn -0.005850 0.999982 -0.001375
vn -0.016200 0.999858 -0.004669
vn -0.018479 0.999783 0.009653
vn -0.006071 0.999977 0.003091
vn -0.004798 0.999987 -0.001567
vn -0.016053 0.999856 -0.005486
vn -0.017499 0.999780 0.011541
vn -0.005104 0.999982 0.003285
vn -0.001284 0.999999 0.000161
vn -0.000503 1.000000 0.000064
vn -0.001232 0.999999 0.000353
vn -0.000518 1.000000 0.000187
vn -0.000433 1.000000 -0.000052
vn -0.001194 0.999999 -0.000214
vn -0.005254 0.999983 -0.002520
vn -0.013493 0.999881 -0.007429
vn -0.014993 0.999801 0.013199
vn -0.005127 0.999978 0.004236
vn -0.000313 1.000000 -0.000146
vn -0.001161 0.999999 0.000562
vn -0.000439 1.000000 0.000299
vn -0.012285 0.999888 -0.008518
vn -0.003849 0.999990 -0.002487
vn -0.001096 0.999999 -0.000478
vn -0.004122 0.999983 0.004104
vn -0.013770 0.999804 0.014237
vn -0.001001 0.999999 0.000775
vn 0.000005 1.000000 -0.000001
vn -0.007906 0.999909 -0.010906
vn -0.003572 0.999985 -0.004281
vn -0.000177 1.000000 -0.000166
vn -0.003847 0.999980 0.005018
vn -0.010374 0.999834 0.014948
vn -0.000297 1.000000 0.000360
vn -0.004340 0.999908 -0.012821
vn -0.001343 0.999991 -0.004052
vn -0.000751 0.999999 -0.000827
vn -0.000087 1.000000 -0.000214
vn -0.000797 0.999999 0.000954
vn -0.002869 0.999986 0.004519
vn -0.009325 0.999837 0.015457
vn -0.001397 0.999900 -0.014049
vn -0.000280 0.999985 -0.005553
vn -0.000154 1.000000 0.000341
vn -0.000026 0.999999 -0.001050
vn -0.002414 0.999982 0.005407
vn -0.005770 0.999868 0.015188
vn 0.002207 0.999881 -0.015249
vn 0.000846 0.999988 -0.004745
vn -0.000537 0.999999 0.001063
vn 0.000027 1.000000 -0.000312
vn -0.000038 1.000000 0.000285
vn -0.001525 0.999988 0.004599
vn -0.004599 0.999871 0.015376
vn 0.004314 0.999873 -0.015337
vn 0.001889 0.999983 -0.005580
vn 0.000399 0.999999 -0.001039
vn 0.000141 1.000000 -0.000341
vn -0.000104 0.999999 0.001104
vn -0.000493 0.999984 0.005625
vn 0.000086 1.000000 0.000206
vn -0.000053 0.999904 0.013842
vn 0.002513 0.999986 -0.004665
vn 0.001330 0.999991 0.004001
vn 0.000285 1.000000 -0.000340
vn 0.000709 0.999999 -0.000937
vn 0.007899 0.999848 -0.015533
vn 0.000196 1.000000 0.000170
vn 0.000770 0.999999 0.000787
vn 0.004097 0.999918 0.012166
vn 0.000316 1.000000 0.000143
vn 0.001089 0.999999 0.000439
vn 0.000960 0.999999 -0.000747
vn 0.000425 1.000000 -0.000276
vn 0.003899 0.999985 0.003943
vn 0.003591 0.999980 -0.005162
vn 0.000443 1.000000 0.000061
vn 0.001211 0.999999 0.000179
vn 0.000517 1.000000 -0.000151
vn 0.001149 0.999999 -0.000483
vn 0.009474 0.999843 -0.014953
vn 0.000513 1.000000 -0.000037
vn 0.001213 0.999999 -0.000220
vn 0.008422 0.999912 0.010244
vn 0.003961 0.999983 -0.004169
vn 0.004011 0.999989 0.002384
vn 0.005285 0.999983 0.002456
vn 0.012817 0.999819 -0.014073
vn 0.005100 0.999978 -0.004259
vn 0.013022 0.999882 0.008146
vn 0.005183 0.999982 -0.003165
vn 0.005027 0.999986 0.001473
vn 0.006120 0.999981 0.001217
vn 0.013682 0.999880 0.007311
vn 0.006321 0.999976 -0.002791
vn 0.014361 0.999814 -0.012863
vn 0.005843 0.999983 0.000217
vn 0.006008 0.999981 -0.001712
vn 0.006767 0.999977 -0.001179
vn 0.006716 0.999977 -0.000327
vn 0.001246 0.999999 -0.000112
vn 0.006039 0.999982 -0.000722
vn 0.017190 0.999793 -0.010862
vn 0.016486 0.999850 0.005268
vn 0.018549 0.999791 -0.008644
vn 0.016858 0.999849 0.004274
vn 0.019214 0.999815 0.001289
vn 0.020161 0.999780 -0.005835
vn 0.019711 0.999806 -0.000335
vn 0.020389 0.999786 -0.003419
vn 0.020730 0.999782 -0.002439
vn 0.006573 -0.999978 -0.000557
vn 0.005893 -0.999982 -0.001154
vn 0.019841 -0.999796 -0.003718
vn 0.018751 -0.999824 -0.000767
vn 0.006564 -0.999977 -0.001752
vn 0.019526 -0.999797 -0.004910
vn 0.005607 -0.999984 0.000264
vn 0.018016 -0.999837 0.001531
vn 0.005781 -0.999981 -0.002197
vn 0.019326 -0.999787 -0.007309
vn 0.005886 -0.999982 0.001387
vn 0.016007 -0.999862 0.004564
vn 0.006121 -0.999976 -0.003116
vn 0.018070 -0.999792 -0.009448
vn 0.004826 -0.999987 0.001579
vn 0.015822 -0.999860 0.005417
vn 0.005145 -0.999981 -0.003315
vn 0.017110 -0.999790 -0.011285
vn 0.001287 -0.999999 -0.000166
vn 0.000502 -1.000000 -0.000068
vn 0.001233 -0.999999 -0.000353
vn 0.000517 -1.000000 -0.000186
vn 0.000430 -1.000000 0.000053
vn 0.001194 -0.999999 0.000217
vn 0.005274 -0.999983 0.002535
vn 0.013388 -0.999884 0.007328
vn 0.005165 -0.999978 -0.004264
vn 0.014704 -0.999808 -0.012921
vn 0.000310 -1.000000 0.000148
vn 0.001158 -0.999999 -0.000560
vn 0.000439 -1.000000 -0.000299
vn 0.012164 -0.999890 0.008437
vn 0.003870 -0.999989 0.002504
vn 0.001094 -0.999999 0.000478
vn 0.004153 -0.999983 -0.004133
vn 0.013502 -0.999811 -0.013971
vn 0.001001 -0.999999 -0.000773
vn -0.000005 -1.000000 0.000001
vn 0.007947 -0.999910 0.010805
vn 0.003541 -0.999985 0.004287
vn 0.000176 -1.000000 0.000165
vn 0.003866 -0.999980 -0.005054
vn 0.010245 -0.999839 -0.014710
vn 0.000297 -1.000000 -0.000358
vn 0.004366 -0.999909 0.012784
vn 0.001344 -0.999991 0.004095
vn 0.000727 -0.999999 0.000845
vn 0.000085 -1.000000 0.000221
vn 0.000793 -0.999999 -0.000951
vn 0.002879 -0.999986 -0.004547
vn 0.009166 -0.999842 -0.015213
vn 0.001414 -0.999901 0.014038
vn 0.000269 -0.999985 0.005563
vn 0.000152 -1.000000 -0.000340
vn 0.000020 -0.999999 0.001079
vn 0.002422 -0.999982 -0.005427
vn 0.005725 -0.999871 -0.014984
vn -0.002208 -0.999881 0.015246
vn -0.000859 -0.999988 0.004765
vn 0.000536 -0.999999 -0.001062
vn -0.000027 -1.000000 0.000324
vn 0.000042 -1.000000 -0.000287
vn 0.001526 -0.999988 -0.004616
vn 0.004519 -0.999875 -0.015182
vn -0.004298 -0.999873 0.015326
vn -0.001897 -0.999983 0.005595
vn -0.000412 -0.999999 0.001076
vn -0.000148 -1.000000 0.000355
vn 0.000109 -0.999999 -0.001106
vn 0.000494 -0.999984 -0.005644
vn -0.000081 -1.000000 -0.000208
vn 0.000073 -0.999906 -0.013721
vn -0.002530 -0.999986 0.004691
vn -0.001340 -0.999991 -0.004020
vn -0.000748 -0.999999 0.000973
vn -0.000302 -1.000000 0.000355
vn -0.007892 -0.999848 0.015534
vn -0.000211 -1.000000 -0.000171
vn -0.000808 -0.999999 -0.000778
vn -0.004089 -0.999919 -0.012069
vn -0.000333 -1.000000 -0.000147
vn -0.001135 -0.999999 -0.000450
vn -0.001007 -0.999999 0.000778
vn -0.000449 -1.000000 0.000291
vn -0.003898 -0.999985 -0.003935
vn -0.003614 -0.999980 0.005178
vn -0.000466 -1.000000 -0.000063
vn -0.001268 -0.999999 -0.000184
vn -0.001210 -0.999999 0.000507
vn -0.000547 -1.000000 0.000160
vn -0.009456 -0.999844 0.014949
vn -0.001280 -0.999999 0.000234
vn -0.000544 -1.000000 0.000042
vn -0.008391 -0.999913 -0.010173
vn -0.003987 -0.999983 0.004194
vn -0.004075 -0.999989 -0.002390
vn -0.005306 -0.999983 -0.002463
vn -0.012819 -0.999819 0.014079
vn -0.005123 -0.999978 0.004276
vn -0.012934 -0.999883 -0.008125
vn -0.005228 -0.999981 0.003185
vn -0.005067 -0.999986 -0.001476
vn -0.006154 -0.999980 -0.001218
vn -0.013681 -0.999880 -0.007305
vn -0.006349 -0.999976 0.002805
vn -0.014360 -0.999814 0.012859
vn -0.005896 -0.999983 -0.000212
vn -0.006060 -0.999980 0.001730
vn -0.006806 -0.999976 0.001187
vn -0.006754 -0.999977 0.000330
vn -0.001310 -0.999999 0.000123
vn -0.006090 -0.999981 0.000730
vn -0.017167 -0.999794 0.010854
vn -0.016484 -0.999850 -0.005267
vn -0.018521 -0.999791 0.008632
vn -0.016867 -0.999849 -0.004267
vn -0.019218 -0.999815 -0.001288
vn -0.020128 -0.999780 0.005833
vn -0.019727 -0.999805 0.000336
vn -0.020367 -0.999787 0.003417
vn -0.020733 -0.999782 0.002442
vn 0.996302 0.019755 -0.083617
vn 0.983342 0.020204 -0.180637
vn 0.983340 0.020204 -0.180651
vn 0.996318 0.019754 -0.083425
vn 0.965530 0.020415 -0.259490
vn 0.965559 0.020415 -0.259382
vn 0.997419 0.018877 0.069274
vn 0.997413 0.018876 0.069365
vn 0.935032 0.020450 -0.353973
vn 0.935034 0.020450 -0.353968
vn 0.974790 0.017811 0.222413
vn 0.974744 0.017810 0.222614
vn 0.890472 0.020295 -0.454586
vn 0.890538 0.020295 -0.454456
vn 0.944405 0.016998 0.328344
vn 0.944410 0.016998 0.328330
vn 0.836081 0.019944 -0.548243
vn 0.836082 0.019944 -0.548242
vn 0.903926 0.016328 0.427377
vn 0.903841 0.016327 0.427556
vn 0.772612 0.019387 -0.634582
vn 0.772697 0.019388 -0.634479
vn 0.823314 0.015472 0.567375
vn 0.823288 0.015472 0.567413
vn 0.698400 0.018679 -0.715464
vn 0.698394 0.018679 -0.715470
vn 0.638445 0.014444 0.769532
vn 0.637746 0.014440 0.770111
vn 0.612214 0.017837 -0.790491
vn 0.612326 0.017837 -0.790404
vn 0.324830 0.013712 0.945673
vn 0.324645 0.013712 0.945737
vn 0.518289 0.016934 -0.855038
vn 0.518272 0.016934 -0.855048
vn 0.055030 0.013908 0.998388
vn 0.054622 0.013909 0.998410
vn 0.413697 0.015963 -0.910275
vn 0.413834 0.015964 -0.910212
vn -0.152442 0.014734 0.988203
vn -0.152463 0.014735 0.988199
vn 0.288207 0.014758 -0.957455
vn 0.288175 0.014758 -0.957464
vn -0.323375 0.015691 0.946141
vn -0.323581 0.015692 0.946070
vn 0.080921 0.013448 -0.996630
vn 0.081537 0.013451 -0.996580
vn -0.458585 0.016648 0.888495
vn -0.458579 0.016648 0.888498
vn -0.081201 0.012619 -0.996618
vn -0.081201 0.012619 -0.996618
vn -0.574552 0.017527 0.818280
vn -0.574698 0.017528 0.818178
vn -0.562283 0.013599 -0.826833
vn -0.700817 0.014768 -0.713188
vn -0.700210 0.014764 -0.713784
vn -0.562283 0.013599 -0.826833
vn -0.677944 0.018348 0.734885
vn -0.677946 0.018348 0.734883
vn -0.845646 0.015891 -0.533507
vn -0.845642 0.015891 -0.533514
vn -0.910648 0.016882 -0.412839
vn -0.910569 0.016880 -0.413012
vn -0.768115 0.019078 0.640028
vn -0.768234 0.019079 0.639885
vn -0.848283 0.019731 0.529176
vn -0.848297 0.019731 0.529154
vn -0.952781 0.017824 -0.303135
vn -0.952780 0.017823 -0.303136
vn -0.913862 0.020259 0.405519
vn -0.913947 0.020259 0.405327
vn -0.982107 0.018840 -0.187377
vn -0.982071 0.018838 -0.187570
vn -0.998090 0.019830 -0.058503
vn -0.998088 0.019830 -0.058538
vn -0.960501 0.020611 0.277513
vn -0.960508 0.020611 0.277489
vn -0.998529 0.020487 0.050201
vn -0.998534 0.020486 0.050097
vn -0.984829 0.020737 0.172282
vn -0.984847 0.020737 0.172182
vn -0.993604 0.020719 0.111006
vn -0.993602 0.020719 0.111022
vn 0.000443 0.999985 0.005490
vn -0.000115 0.999910 0.013436
vn 0.004458 0.999879 0.014909
vn 0.001490 0.999989 0.004505
vn -0.001388 0.999991 0.003977
vn -0.004339 0.999918 0.012041
vn 0.005627 0.999875 0.014792
vn 0.002364 0.999983 0.005305
vn 0.009103 0.999844 0.015112
vn 0.002812 0.999986 0.004449
vn -0.008806 0.999907 0.010433
vn -0.004009 0.999984 0.003998
vn 0.010143 0.999841 0.014644
vn 0.003777 0.999981 0.004945
vn -0.013508 0.999873 0.008494
vn -0.004145 0.999988 0.002439
vn 0.000090 0.999999 0.001108
vn 0.000029 1.000000 0.000289
vn -0.000093 1.000000 0.000211
vn 0.013525 0.999811 0.013990
vn 0.004063 0.999984 0.004052
vn 0.000531 0.999999 0.001067
vn 0.000145 1.000000 0.000345
vn -0.000810 0.999999 0.000786
vn -0.014188 0.999870 0.007611
vn -0.005414 0.999982 0.002527
vn 0.000785 0.999999 0.000956
vn -0.000211 1.000000 0.000179
vn 0.005069 0.999978 0.004184
vn 0.014739 0.999807 0.013004
vn 0.000286 1.000000 0.000364
vn 0.017319 0.999785 0.011411
vn 0.005063 0.999982 0.003263
vn -0.017014 0.999841 0.005399
vn -0.005084 0.999986 0.001524
vn -0.000012 1.000000 0.000005
vn 0.000992 0.999999 0.000780
vn -0.001096 0.999999 0.000479
vn 0.000430 1.000000 0.000303
vn -0.000316 1.000000 0.000155
vn 0.006045 0.999977 0.003075
vn 0.018370 0.999785 0.009607
vn -0.017310 0.999841 0.004368
vn -0.006255 0.999980 0.001246
vn 0.001155 0.999999 0.000563
vn 0.019778 0.999776 0.007477
vn 0.005723 0.999981 0.002182
vn -0.001214 0.999999 0.000189
vn -0.019702 0.999805 0.001329
vn -0.005948 0.999982 0.000235
vn 0.000510 1.000000 0.000192
vn -0.000445 1.000000 0.000069
vn 0.006529 0.999977 0.001754
vn 0.020082 0.999786 0.005021
vn 0.001224 0.999999 0.000366
vn -0.020099 0.999798 -0.000312
vn -0.006802 0.999977 -0.000317
vn -0.001251 0.999999 -0.000105
vn 0.005883 0.999982 0.001156
vn 0.020580 0.999781 0.003843
vn 0.000491 1.000000 0.000074
vn -0.000518 1.000000 -0.000036
vn -0.020895 0.999779 -0.002428
vn -0.006073 0.999981 -0.000717
vn 0.006625 0.999978 0.000561
vn 0.019573 0.999808 0.000728
vn 0.001276 0.999999 0.000167
vn 0.000418 1.000000 -0.000050
vn -0.001218 0.999999 -0.000220
vn -0.006777 0.999976 -0.001162
vn -0.000523 1.000000 -0.000144
vn -0.020401 0.999786 -0.003403
vn 0.005668 0.999984 -0.000254
vn 0.018855 0.999821 -0.001570
vn 0.000297 1.000000 -0.000135
vn 0.001186 0.999999 -0.000190
vn 0.006006 0.999981 -0.001369
vn -0.005989 0.999981 -0.001695
vn -0.020063 0.999782 -0.005787
vn 0.016479 0.999853 -0.004750
vn -0.000428 1.000000 -0.000270
vn -0.000286 1.000000 -0.000334
vn -0.000959 0.999999 -0.000742
vn -0.001158 0.999999 -0.000474
vn -0.006282 0.999977 -0.002761
vn 0.000069 1.000000 -0.000209
vn 0.000166 1.000000 -0.000150
vn 0.000708 0.999999 -0.000821
vn -0.000146 1.000000 -0.000333
vn -0.000713 0.999999 -0.000928
vn 0.004824 0.999987 -0.001590
vn -0.018340 0.999795 -0.008560
vn -0.000035 1.000000 -0.000306
vn 0.000017 0.999999 -0.001043
vn -0.000404 0.999999 -0.001032
vn -0.005143 0.999982 -0.003130
vn 0.001050 0.999999 -0.000469
vn 0.005337 0.999982 -0.002578
vn 0.016145 0.999854 -0.005557
vn -0.005048 0.999978 -0.004199
vn -0.016951 0.999799 -0.010703
vn 0.003920 0.999989 -0.002527
vn 0.013649 0.999879 -0.007508
vn -0.003908 0.999984 -0.004105
vn 0.003624 0.999984 -0.004311
vn -0.003541 0.999981 -0.005074
vn -0.014165 0.999820 -0.012650
vn 0.001347 0.999991 -0.004046
vn 0.012483 0.999885 -0.008600
vn -0.002481 0.999986 -0.004583
vn 0.000281 0.999985 -0.005454
vn -0.001864 0.999983 -0.005466
vn -0.000833 0.999989 -0.004648
vn -0.012606 0.999825 -0.013830
vn 0.008169 0.999907 -0.010877
vn -0.009276 0.999850 -0.014645
vn 0.004458 0.999910 -0.012672
vn -0.007728 0.999855 -0.015177
vn -0.004211 0.999879 -0.014958
vn 0.001444 0.999904 -0.013765
vn -0.002144 0.999887 -0.014892
vn -0.000438 -0.999985 -0.005506
vn -0.001497 -0.999989 -0.004528
vn -0.004400 -0.999882 -0.014721
vn 0.000061 -0.999911 -0.013335
vn 0.001401 -0.999991 -0.003995
vn 0.004301 -0.999919 -0.011951
vn -0.002367 -0.999983 -0.005329
vn -0.005597 -0.999878 -0.014603
vn -0.002832 -0.999986 -0.004483
vn -0.008944 -0.999850 -0.014859
vn 0.008729 -0.999909 -0.010333
vn 0.004025 -0.999984 -0.004012
vn -0.003796 -0.999980 -0.004980
vn -0.010023 -0.999846 -0.014390
vn 0.013329 -0.999876 -0.008405
vn 0.004157 -0.999988 -0.002455
vn -0.000095 -0.999999 -0.001109
vn -0.000030 -1.000000 -0.000291
vn 0.000090 -1.000000 -0.000214
vn -0.004098 -0.999983 -0.004089
vn -0.013247 -0.999818 -0.013706
vn -0.000527 -0.999999 -0.001069
vn -0.000141 -1.000000 -0.000345
vn 0.000814 -0.999999 -0.000789
vn 0.014030 -0.999873 -0.007533
vn 0.005418 -0.999982 -0.002518
vn -0.000787 -0.999999 -0.000958
vn 0.000215 -1.000000 -0.000178
vn -0.005109 -0.999978 -0.004222
vn -0.014488 -0.999814 -0.012716
vn -0.000289 -1.000000 -0.000363
vn -0.005112 -0.999982 -0.003296
vn -0.016935 -0.999794 -0.011160
vn 0.016889 -0.999843 -0.005403
vn 0.005151 -0.999986 -0.001513
vn 0.000012 -1.000000 -0.000004
vn -0.000997 -0.999999 -0.000778
vn 0.001137 -0.999999 -0.000459
vn -0.000432 -1.000000 -0.000304
vn 0.000339 -1.000000 -0.000154
vn -0.006097 -0.999977 -0.003107
vn -0.017986 -0.999794 -0.009388
vn 0.017297 -0.999841 -0.004378
vn 0.006283 -0.999980 -0.001242
vn -0.001151 -0.999999 -0.000567
vn -0.005778 -0.999981 -0.002202
vn -0.019330 -0.999786 -0.007301
vn 0.001273 -0.999999 -0.000191
vn 0.019711 -0.999805 -0.001330
vn 0.005993 -0.999982 -0.000228
vn -0.000510 -1.000000 -0.000192
vn 0.000472 -1.000000 -0.000070
vn -0.006585 -0.999977 -0.001761
vn -0.019634 -0.999795 -0.004921
vn -0.001227 -0.999999 -0.000361
vn 0.020101 -0.999798 0.000303
vn 0.006842 -0.999977 0.000324
vn 0.001319 -0.999999 0.000116
vn -0.005934 -0.999982 -0.001161
vn -0.020113 -0.999791 -0.003746
vn -0.000494 -1.000000 -0.000070
vn 0.000550 -1.000000 0.000039
vn 0.020890 -0.999779 0.002423
vn 0.006128 -0.999981 0.000726
vn -0.006668 -0.999978 -0.000566
vn -0.019194 -0.999816 -0.000757
vn -0.001278 -0.999999 -0.000169
vn -0.000422 -1.000000 0.000046
vn 0.006814 -0.999976 0.001171
vn 0.001286 -0.999999 0.000232
vn 0.000554 -1.000000 0.000151
vn 0.020388 -0.999786 0.003384
vn -0.005702 -0.999984 0.000258
vn -0.018499 -0.999828 0.001545
vn -0.000300 -1.000000 0.000142
vn -0.001184 -0.999999 0.000209
vn -0.005987 -0.999981 0.001397
vn 0.006047 -0.999980 0.001705
vn 0.020053 -0.999782 0.005783
vn -0.016353 -0.999856 0.004642
vn 0.000451 -1.000000 0.000287
vn 0.001010 -0.999999 0.000776
vn 0.000303 -1.000000 0.000351
vn 0.006312 -0.999976 0.002782
vn 0.001218 -0.999999 0.000498
vn -0.000072 -1.000000 0.000216
vn -0.000731 -0.999999 0.000837
vn -0.000169 -1.000000 0.000159
vn 0.000748 -0.999999 0.000966
vn 0.000155 -1.000000 0.000348
vn -0.004879 -0.999987 0.001605
vn 0.018349 -0.999795 0.008531
vn 0.000039 -1.000000 0.000317
vn -0.000013 -1.000000 0.001072
vn 0.000423 -0.999999 0.001067
vn 0.005189 -0.999982 0.003158
vn -0.001084 -0.999999 0.000480
vn -0.005348 -0.999982 0.002584
vn -0.016112 -0.999855 0.005535
vn 0.005076 -0.999978 0.004217
vn 0.016944 -0.999799 0.010697
vn -0.003939 -0.999989 0.002540
vn -0.013652 -0.999879 0.007505
vn 0.003944 -0.999984 0.004133
vn -0.003628 -0.999984 0.004313
vn 0.003558 -0.999981 0.005093
vn 0.014164 -0.999820 0.012646
vn -0.001349 -0.999991 0.004067
vn -0.012458 -0.999885 0.008614
vn 0.002505 -0.999986 0.004613
vn -0.000278 -0.999985 0.005467
vn 0.001877 -0.999983 0.005488
vn 0.000850 -0.999989 0.004679
vn 0.012607 -0.999825 0.013821
vn -0.008175 -0.999907 0.010875
vn 0.009275 -0.999850 0.014642
vn -0.004446 -0.999910 0.012678
vn 0.007737 -0.999855 0.015191
vn 0.004224 -0.999879 0.014981
vn -0.001438 -0.999904 0.013773
vn 0.002155 -0.999887 0.014907
vn -0.081183 0.014892 -0.996588
vn -0.287674 0.015969 -0.957595
vn -0.287661 0.015969 -0.957599
vn -0.080496 0.014889 -0.996644
vn 0.081199 0.013817 -0.996602
vn 0.081199 0.013817 -0.996602
vn -0.413843 0.016936 -0.910191
vn -0.413676 0.016934 -0.910267
vn -0.518044 0.017828 -0.855168
vn -0.518042 0.017828 -0.855170
vn 0.700542 0.013349 -0.713487
vn 0.562324 0.012586 -0.826821
vn 0.562324 0.012586 -0.826821
vn 0.701084 0.013351 -0.712954
vn -0.612340 0.018679 -0.790374
vn -0.612209 0.018678 -0.790475
vn 0.846009 0.014627 -0.532968
vn 0.845986 0.014626 -0.533005
vn -0.698178 0.019397 -0.715661
vn -0.698169 0.019397 -0.715670
vn 0.910587 0.015892 -0.413013
vn 0.910650 0.015893 -0.412872
vn -0.772683 0.019948 -0.634479
vn -0.772588 0.019947 -0.634594
vn -0.835894 0.020295 -0.548515
vn -0.835891 0.020295 -0.548521
vn 0.952877 0.016882 -0.302887
vn 0.952869 0.016882 -0.302912
vn -0.890538 0.020443 -0.454450
vn -0.890469 0.020443 -0.454585
vn 0.982078 0.017834 -0.187631
vn 0.982108 0.017835 -0.187472
vn -0.934918 0.020406 -0.354277
vn -0.934916 0.020406 -0.354282
vn 0.998128 0.018863 -0.058179
vn 0.998128 0.018863 -0.058173
vn -0.965570 0.020191 -0.259360
vn -0.965542 0.020191 -0.259464
vn 0.998543 0.019816 0.050189
vn 0.998538 0.019817 0.050283
vn -0.983284 0.019723 -0.181008
vn -0.983288 0.019723 -0.180987
vn 0.993573 0.020465 0.111328
vn 0.993575 0.020464 0.111310
vn -0.996324 0.018863 -0.083565
vn -0.996310 0.018864 -0.083732
vn 0.984853 0.020729 0.172148
vn 0.984836 0.020729 0.172246
vn -0.997454 0.017866 0.069044
vn -0.997457 0.017867 0.068997
vn 0.960406 0.020764 0.277831
vn 0.960397 0.020764 0.277861
vn -0.974729 0.017020 0.222743
vn -0.974768 0.017020 0.222571
vn 0.913918 0.020597 0.405377
vn 0.913827 0.020596 0.405582
vn -0.944517 0.016286 0.328059
vn -0.944505 0.016286 0.328093
vn 0.848087 0.020239 0.529470
vn 0.848066 0.020239 0.529505
vn -0.903891 0.015406 0.427486
vn -0.903965 0.015407 0.427330
vn 0.768216 0.019724 0.639887
vn 0.768083 0.019723 0.640047
vn -0.823707 0.014381 0.566833
vn -0.823690 0.014380 0.566858
vn 0.677714 0.019091 0.735078
vn 0.677695 0.019090 0.735096
vn -0.637828 0.013675 0.770058
vn -0.638454 0.013675 0.769538
vn 0.574703 0.018367 0.818156
vn 0.574532 0.018365 0.818276
vn -0.325102 0.013979 0.945576
vn -0.325350 0.013979 0.945490
vn 0.458298 0.017546 0.888626
vn 0.458280 0.017546 0.888635
vn 0.323560 0.016682 0.946061
vn 0.323311 0.016680 0.946146
vn -0.054697 0.014775 0.998394
vn -0.055138 0.014773 0.998369
vn 0.152124 0.015718 0.988236
vn 0.152053 0.015717 0.988247
s 1
f 122/1/1 123/2/2 124/3/3 125/4/4
f 125/4/4 124/3/3 126/5/5 127/6/6
f 128/7/7 129/8/8 123/2/2 122/1/1
f 127/6/6 126/5/5 130/9/9 131/10/10
f 132/11/11 133/12/12 129/8/8 128/7/7
f 131/10/10 130/9/9 134/13/13 135/14/14
f 136/15/15 137/16/16 133/12/12 132/11/11
f 135/14/14 134/13/13 138/17/17 139/18/18
f 140/19/19 122/1/1 125/4/4 141/20/20
f 142/21/21 127/6/6 131/10/10 143/22/22
f 141/20/20 125/4/4 127/6/6 142/21/21
f 144/23/23 128/7/7 122/1/1 140/19/19
f 145/24/24 132/11/11 128/7/7 144/23/23
f 146/25/25 147/26/26 137/16/16 136/15/15
f 139/18/18 138/17/17 148/27/27 149/28/28
f 136/15/15 132/11/11 145/24/24 150/29/29
f 143/22/22 131/10/10 135/14/14 151/30/30
f 151/30/30 135/14/14 139/18/18 152/31/31
f 153/32/32 147/26/26 146/25/25 154/33/33
f 155/34/34 146/25/25 136/15/15 150/29/29
f 156/35/35 149/28/28 148/27/27 157/36/36
f 152/31/31 139/18/18 149/28/28 158/37/37
f 144/23/23 140/19/19 141/20/20 159/38/38
f 160/39/39 153/32/32 154/33/33 161/40/40
f 141/20/20 142/21/21 143/22/22 159/38/38
f 154/33/33 146/25/25 155/34/34 162/41/41
f 150/29/29 145/24/24 144/23/23 159/38/38
f 143/22/22 151/30/30 152/31/31 159/38/38
f 163/42/42 156/35/35 157/36/36 164/43/43
f 149/28/28 156/35/35 165/44/44 158/37/37
f 166/45/45 160/39/39 161/40/40 167/46/46
f 168/47/47 161/40/40 154/33/33 162/41/41
f 167/46/46 161/40/40 168/47/47 169/48/48
f 156/35/35 163/42/42 170/49/49 165/44/44
f 171/50/50 163/42/42 164/43/43 172/51/51
f 173/52/52 166/45/45 167/46/46 174/53/53
f 169/48/48 168/47/47 162/41/41 159/38/38
f 159/38/38 152/31/31 158/37/37 165/44/44
f 175/54/54 170/49/49 163/42/42 171/50/50
f 174/53/53 167/46/46 169/48/48 176/55/55
f 165/44/44 170/49/49 175/54/54 159/38/38
f 177/56/56 171/50/50 172/51/51 178/57/57
f 179/58/58 173/52/52 174/53/53 180/59/59
f 181/60/60 175/54/54 171/50/50 177/56/56
f 180/59/59 174/53/53 176/55/55 182/61/61
f 182/61/61 176/55/55 169/48/48 159/38/38
f 175/54/54 181/60/60 183/62/62 159/38/38
f 184/63/63 177/56/56 178/57/57 185/64/64
f 183/62/62 181/60/60 177/56/56 184/63/63
f 186/65/65 179/58/58 180/59/59 187/66/66
f 187/66/66 180/59/59 182/61/61 188/67/67
f 182/61/61 159/38/38 189/68/68 188/67/67
f 190/69/69 183/62/62 184/63/63 191/70/70
f 192/71/71 159/38/38 183/62/62 190/69/69
f 191/70/70 184/63/63 185/64/64 193/72/72
f 194/73/73 187/66/66 188/67/67 189/68/68
f 192/71/71 190/69/69 191/70/70 195/74/74
f 189/68/68 159/38/38 196/75/75 197/76/76
f 198/77/77 186/65/65 187/66/66 194/73/73
f 199/78/78 159/38/38 192/71/71 200/79/79
f 195/74/74 191/70/70 193/72/72 201/80/80
f 202/81/81 159/38/38 199/78/78 203/82/82
f 204/83/83 196/75/75 159/38/38 205/84/84
f 200/79/79 192/71/71 195/74/74 206/85/85
f 207/86/86 194/73/73 189/68/68 197/76/76
f 208/87/87 159/38/38 202/81/81 209/88/88
f 205/84/84 159/38/38 210/89/89 211/90/90
f 212/91/91 198/77/77 194/73/73 207/86/86
f 210/89/89 159/38/38 213/92/92 214/93/93
f 206/85/85 195/74/74 201/80/80 215/94/94
f 197/76/76 196/75/75 216/95/95 207/86/86
f 217/96/96 199/78/78 200/79/79 206/85/85
f 203/82/82 199/78/78 217/96/96 218/97/97
f 219/98/98 212/91/91 207/86/86 216/95/95
f 196/75/75 204/83/83 220/99/99 216/95/95
f 206/85/85 215/94/94 221/100/100 217/96/96
f 220/99/99 204/83/83 205/84/84 222/101/101
f 223/102/102 202/81/81 203/82/82 218/97/97
f 209/88/88 202/81/81 223/102/102 224/103/103
f 218/97/97 217/96/96 221/100/100 225/104/104
f 222/101/101 205/84/84 211/90/90 226/105/105
f 227/106/106 219/98/98 216/95/95 220/99/99
f 228/107/107 208/87/87 209/88/88 224/103/103
f 226/105/105 211/90/90 210/89/89 229/108/108
f 229/108/108 210/89/89 214/93/93 230/109/109
f 231/110/110 232/111/111 208/87/87 228/107/107
f 233/112/112 213/92/92 232/111/111 231/110/110
f 230/109/109 214/93/93 213/92/92 233/112/112
f 227/106/106 220/99/99 222/101/101 234/113/113
f 218/97/97 225/104/104 235/114/114 223/102/102
f 234/113/113 222/101/101 226/105/105 236/115/115
f 237/116/116 224/103/103 223/102/102 235/114/114
f 238/117/117 228/107/107 224/103/103 237/116/116
f 236/115/115 226/105/105 229/108/108 239/118/118
f 240/119/119 231/110/110 228/107/107 238/117/117
f 239/118/118 229/108/108 230/109/109 241/120/120
f 242/121/121 233/112/112 231/110/110 240/119/119
f 241/120/120 230/109/109 233/112/112 242/121/121
f 159/38/38 162/41/41 155/34/34 150/29/29
f 159/38/38 208/87/87 232/111/111 213/92/92
s 2
f 5/122/122 8/123/123 2/124/124 1/125/125
f 8/123/123 10/126/126 4/127/127 2/124/124
f 9/128/128 5/122/122 1/125/125 3/129/129
f 10/126/126 14/130/130 7/131/131 4/127/127
f 11/132/132 9/128/128 3/129/129 6/133/133
f 14/130/130 15/134/134 12/135/135 7/131/131
f 16/136/136 11/132/132 6/133/133 13/137/137
f 15/134/134 23/138/138 17/139/139 12/135/135
f 18/140/140 21/141/141 8/123/123 5/122/122
f 20/142/142 27/143/143 14/130/130 10/126/126
f 21/141/141 20/142/142 10/126/126 8/123/123
f 22/144/144 18/140/140 5/122/122 9/128/128
f 24/145/145 22/144/144 9/128/128 11/132/132
f 25/146/146 16/136/136 13/137/137 19/147/147
f 23/138/138 30/148/148 26/149/149 17/139/139
f 16/136/136 35/150/150 24/145/145 11/132/132
f 27/143/143 29/151/151 15/134/134 14/130/130
f 29/151/151 36/152/152 23/138/138 15/134/134
f 28/153/153 32/154/154 25/146/146 19/147/147
f 31/155/155 35/150/150 16/136/136 25/146/146
f 34/156/156 33/157/157 26/149/149 30/148/148
f 36/152/152 39/158/158 30/148/148 23/138/138
f 22/144/144 48/159/159 21/141/141 18/140/140
f 37/160/160 38/161/161 32/154/154 28/153/153
f 21/141/141 48/159/159 27/143/143 20/142/142
f 32/154/154 44/162/162 31/155/155 25/146/146
f 35/150/150 48/159/159 22/144/144 24/145/145
f 27/143/143 48/159/159 36/152/152 29/151/151
f 40/163/163 42/164/164 33/157/157 34/156/156
f 30/148/148 39/158/158 41/165/165 34/156/156
f 43/166/166 46/167/167 38/161/161 37/160/160
f 45/168/168 44/162/162 32/154/154 38/161/161
f 46/167/167 52/169/169 45/168/168 38/161/161
f 34/156/156 41/165/165 47/170/170 40/163/163
f 49/171/171 50/172/172 42/164/164 40/163/163
f 51/173/173 54/174/174 46/167/167 43/166/166
f 52/169/169 48/159/159 44/162/162 45/168/168
f 48/159/159 41/165/165 39/158/158 36/152/152
f 53/175/175 49/171/171 40/163/163 47/170/170
f 54/174/174 56/176/176 52/169/169 46/167/167
f 41/165/165 48/159/159 53/175/175 47/170/170
f 55/177/177 57/178/178 50/172/172 49/171/171
f 58/179/179 60/180/180 54/174/174 51/173/173
f 59/181/181 55/177/177 49/171/171 53/175/175
f 60/180/180 61/182/182 56/176/176 54/174/174
f 61/182/182 48/159/159 52/169/169 56/176/176
f 53/175/175 48/159/159 62/183/183 59/181/181
f 63/184/184 64/185/185 57/178/178 55/177/177
f 62/183/183 63/184/184 55/177/177 59/181/181
f 65/186/186 66/187/187 60/180/180 58/179/179
f 66/187/187 68/188/188 61/182/182 60/180/180
f 61/182/182 68/188/188 67/189/189 48/159/159
f 69/190/190 71/191/191 63/184/184 62/183/183
f 70/192/192 69/190/190 62/183/183 48/159/159
f 71/191/191 72/193/193 64/185/185 63/184/184
f 73/194/194 67/189/189 68/188/188 66/187/187
f 70/192/192 77/195/195 71/191/191 69/190/190
f 67/189/189 80/196/196 74/197/197 48/159/159
f 75/198/198 73/194/194 66/187/187 65/186/186
f 76/199/199 82/200/200 70/192/192 48/159/159
f 77/195/195 78/201/201 72/193/193 71/191/191
f 79/202/202 93/203/203 76/199/199 48/159/159
f 81/204/204 84/205/205 48/159/159 74/197/197
f 82/200/200 88/206/206 77/195/195 70/192/192
f 83/207/207 80/196/196 67/189/189 73/194/194
f 85/208/208 97/209/209 79/202/202 48/159/159
f 84/205/205 98/210/210 86/211/211 48/159/159
f 87/212/212 83/207/207 73/194/194 75/198/198
f 86/211/211 101/213/213 89/214/214 48/159/159
f 88/206/206 91/215/215 78/201/201 77/195/195
f 80/196/196 83/207/207 90/216/216 74/197/197
f 92/217/217 88/206/206 82/200/200 76/199/199
f 93/203/203 100/218/218 92/217/217 76/199/199
f 94/219/219 90/216/216 83/207/207 87/212/212
f 74/197/197 90/216/216 95/220/220 81/204/204
f 88/206/206 92/217/217 96/221/221 91/215/215
f 95/220/220 102/222/222 84/205/205 81/204/204
f 99/223/223 100/218/218 93/203/203 79/202/202
f 97/209/209 112/224/224 99/223/223 79/202/202
f 100/218/218 106/225/225 96/221/221 92/217/217
f 102/222/222 105/226/226 98/210/210 84/205/205
f 103/227/227 95/220/220 90/216/216 94/219/219
f 104/228/228 112/224/224 97/209/209 85/208/208
f 105/226/226 107/229/229 86/211/211 98/210/210
f 107/229/229 111/230/230 101/213/213 86/211/211
f 108/231/231 104/228/228 85/208/208 109/232/232
f 110/233/233 108/231/231 109/232/232 89/214/214
f 111/230/230 110/233/233 89/214/214 101/213/213
f 103/227/227 114/234/234 102/222/222 95/220/220
f 100/218/218 99/223/223 113/235/235 106/225/225
f 114/234/234 116/236/236 105/226/226 102/222/222
f 115/237/237 113/235/235 99/223/223 112/224/224
f 117/238/238 115/237/237 112/224/224 104/228/228
f 116/236/236 119/239/239 107/229/229 105/226/226
f 118/240/240 117/238/238 104/228/228 108/231/231
f 119/239/239 121/241/241 111/230/230 107/229/229
f 120/242/242 118/240/240 108/231/231 110/233/233
f 121/241/241 120/242/242 110/233/233 111/230/230
f 48/159/159 35/150/150 31/155/155 44/162/162
f 48/159/159 89/214/214 109/232/232 85/208/208
s 3
f 1/243/243 2/244/244 124/3/245 123/2/246
f 2/244/244 4/245/247 126/5/248 124/3/245
f 3/246/249 1/243/243 123/2/246 129/8/250
f 4/245/247 7/247/251 130/9/252 126/5/248
f 6/248/253 3/246/249 129/8/250 133/12/254
f 7/247/251 12/249/255 134/13/256 130/9/252
f 13/250/257 6/248/253 133/12/254 137/16/258
f 12/249/255 17/251/259 138/17/260 134/13/256
f 19/252/261 13/250/257 137/16/258 147/26/262
f 17/251/259 26/253/263 148/27/264 138/17/260
f 28/254/265 19/252/261 147/26/262 153/32/266
f 26/253/263 33/255/267 157/36/268 148/27/264
f 37/256/269 28/254/265 153/32/266 160/39/270
f 33/255/267 42/257/271 164/43/272 157/36/268
f 43/258/273 37/256/269 160/39/270 166/45/274
f 42/257/271 50/259/275 172/51/276 164/43/272
f 51/260/277 43/258/273 166/45/274 173/52/278
f 50/259/275 57/261/279 178/57/280 172/51/276
f 58/262/281 51/260/277 173/52/278 179/58/282
f 57/261/279 64/263/283 185/64/284 178/57/280
f 65/264/285 58/262/281 179/58/282 186/65/286
f 64/263/283 72/265/287 193/72/288 185/64/284
f 75/266/289 65/264/285 186/65/286 198/77/290
f 72/265/287 78/267/291 201/80/292 193/72/288
f 87/268/293 75/266/289 198/77/290 212/91/294
f 78/267/295 91/269/296 215/94/297 201/80/298
f 94/270/299 87/268/293 212/91/294 219/98/300
f 91/269/296 96/271/301 221/100/302 215/94/297
f 96/271/301 106/272/303 225/104/304 221/100/302
f 103/273/305 94/270/299 219/98/300 227/106/306
f 114/274/307 103/273/305 227/106/306 234/113/308
f 106/272/303 113/275/309 235/114/310 225/104/304
f 116/276/311 114/274/307 234/113/308 236/115/312
f 113/275/309 115/277/313 237/116/314 235/114/310
f 115/277/313 117/278/315 238/117/316 237/116/314
f 119/279/317 116/276/311 236/115/312 239/118/318
f 117/278/315 118/280/319 240/119/320 238/117/316
f 121/281/321 119/279/317 239/118/318 241/120/322
f 118/280/319 120/282/323 242/121/324 240/119/320
f 120/282/323 121/281/321 241/120/322 242/121/324
s 5
f 364/283/325 365/284/326 366/285/327 367/286/328
f 368/287/329 369/288/330 365/284/326 364/283/325
f 367/286/328 366/285/327 370/289/331 371/290/332
f 371/290/332 370/289/331 372/291/333 373/292/334
f 374/293/335 369/288/330 368/287/329 375/294/336
f 373/292/334 372/291/333 376/295/337 377/296/338
f 378/297/339 374/293/335 375/294/336 379/298/340
f 380/299/341 364/283/325 367/286/328 381/300/342
f 368/287/329 364/283/325 380/299/341 382/301/343
f 377/296/338 376/295/337 383/302/344 384/303/345
f 367/286/328 371/290/332 385/304/346 381/300/342
f 385/304/346 371/290/332 373/292/334 386/305/347
f 387/306/348 375/294/336 368/287/329 382/301/343
f 388/307/349 378/297/339 379/298/340 389/308/350
f 373/292/334 377/296/338 390/309/351 386/305/347
f 379/298/340 375/294/336 387/306/348 391/310/352
f 392/311/353 384/303/345 383/302/344 393/312/354
f 390/309/351 377/296/338 384/303/345 394/313/355
f 392/311/353 393/312/354 395/314/356 396/315/357
f 397/316/358 388/307/349 389/308/350 398/317/359
f 382/301/343 380/299/341 381/300/342 399/318/360
f 384/303/345 392/311/353 400/319/361 394/313/355
f 401/320/362 389/308/350 379/298/340 391/310/352
f 381/300/342 385/304/346 386/305/347 399/318/360
f 391/310/352 387/306/348 382/301/343 399/318/360
f 400/319/361 392/311/353 396/315/357 402/321/363
f 386/305/347 390/309/351 394/313/355 399/318/360
f 398/317/359 389/308/350 401/320/362 403/322/364
f 404/323/365 396/315/357 395/314/356 405/324/366
f 406/325/367 397/316/358 398/317/359 407/326/368
f 394/313/355 400/319/361 402/321/363 399/318/360
f 396/315/357 404/323/365 408/327/369 402/321/363
f 403/322/364 401/320/362 391/310/352 399/318/360
f 404/323/365 405/324/366 409/328/370 410/329/371
f 411/330/372 407/326/368 398/317/359 403/322/364
f 412/331/373 406/325/367 407/326/368 413/332/374
f 408/327/369 404/323/365 410/329/371 414/333/375
f 413/332/374 407/326/368 411/330/372 415/334/376
f 402/321/363 408/327/369 414/333/375 399/318/360
f 416/335/377 410/329/371 409/328/370 417/336/378
f 415/334/376 411/330/372 403/322/364 399/318/360
f 418/337/379 414/333/375 410/329/371 416/335/377
f 419/338/380 412/331/373 413/332/374 420/339/381
f 413/332/374 415/334/376 421/340/382 420/339/381
f 422/341/383 416/335/377 417/336/378 423/342/384
f 418/337/379 416/335/377 422/341/383 424/343/385
f 414/333/375 418/337/379 424/343/385 399/318/360
f 425/344/386 421/340/382 415/334/376 399/318/360
f 426/345/387 419/338/380 420/339/381 427/346/388
f 427/346/388 420/339/381 421/340/382 425/344/386
f 428/347/389 422/341/383 423/342/384 429/348/390
f 430/349/391 424/343/385 422/341/383 428/347/389
f 431/350/392 399/318/360 424/343/385 430/349/391
f 427/346/388 425/344/386 432/351/393 433/352/394
f 425/344/386 399/318/360 434/353/395 432/351/393
f 426/345/387 427/346/388 433/352/394 435/354/396
f 430/349/391 428/347/389 436/355/397 431/350/392
f 436/355/397 428/347/389 429/348/390 437/356/398
f 438/357/399 399/318/360 431/350/392 439/358/400
f 439/358/400 431/350/392 436/355/397 440/359/401
f 441/360/402 433/352/394 432/351/393 434/353/395
f 435/354/396 433/352/394 441/360/402 442/361/403
f 440/359/401 436/355/397 437/356/398 443/362/404
f 444/363/405 399/318/360 445/364/406 446/365/407
f 441/360/402 434/353/395 447/366/408 448/367/409
f 449/368/410 399/318/360 450/369/411 451/370/412
f 445/364/406 399/318/360 452/371/413 453/372/414
f 454/373/415 438/357/399 439/358/400 440/359/401
f 442/361/403 441/360/402 448/367/409 455/374/416
f 456/375/417 399/318/360 449/368/410 457/376/418
f 452/371/413 399/318/360 456/375/417 458/377/419
f 447/366/408 444/363/405 459/378/420 448/367/409
f 460/379/421 438/357/399 454/373/415 461/380/422
f 440/359/401 443/362/404 462/381/423 454/373/415
f 459/378/420 444/363/405 446/365/407 463/382/424
f 464/383/425 455/374/416 448/367/409 459/378/420
f 465/384/426 450/369/411 460/379/421 461/380/422
f 461/380/422 454/373/415 462/381/423 466/385/427
f 446/365/407 445/364/406 467/386/428 463/382/424
f 451/370/412 450/369/411 465/384/426 468/387/429
f 467/386/428 445/364/406 453/372/414 469/388/430
f 464/383/425 459/378/420 463/382/424 470/389/431
f 471/390/432 449/368/410 451/370/412 468/387/429
f 465/384/426 461/380/422 466/385/427 472/391/433
f 453/372/414 452/371/413 473/392/434 469/388/430
f 457/376/418 449/368/410 471/390/432 474/393/435
f 473/392/434 452/371/413 458/377/419 475/394/436
f 476/395/437 456/375/417 457/376/418 474/393/435
f 458/377/419 456/375/417 476/395/437 475/394/436
f 477/396/438 470/389/431 463/382/424 467/386/428
f 468/387/429 465/384/426 472/391/433 478/397/439
f 477/396/438 467/386/428 469/388/430 479/398/440
f 480/399/441 471/390/432 468/387/429 478/397/439
f 469/388/430 473/392/434 481/400/442 479/398/440
f 481/400/442 473/392/434 475/394/436 482/401/443
f 483/402/444 474/393/435 471/390/432 480/399/441
f 482/401/443 475/394/436 476/395/437 484/403/445
f 484/403/445 476/395/437 474/393/435 483/402/444
f 399/318/360 444/363/405 447/366/408 434/353/395
f 399/318/360 438/357/399 460/379/421 450/369/411
s 7
f 247/404/446 251/405/447 244/406/448 243/407/449
f 250/408/450 247/404/446 243/407/449 245/409/451
f 251/405/447 252/410/452 246/411/453 244/406/448
f 252/410/452 254/412/454 249/413/455 246/411/453
f 248/414/456 256/415/457 250/408/450 245/409/451
f 254/412/454 259/416/458 253/417/459 249/413/455
f 255/418/460 261/419/461 256/415/457 248/414/456
f 258/420/462 267/421/463 251/405/447 247/404/446
f 250/408/450 268/422/464 258/420/462 247/404/446
f 259/416/458 264/423/465 257/424/466 253/417/459
f 251/405/447 267/421/463 260/425/467 252/410/452
f 260/425/467 271/426/468 254/412/454 252/410/452
f 262/427/469 268/422/464 250/408/450 256/415/457
f 263/428/470 270/429/471 261/419/461 255/418/460
f 254/412/454 271/426/468 266/430/472 259/416/458
f 261/419/461 276/431/473 262/427/469 256/415/457
f 269/432/474 265/433/475 257/424/466 264/423/465
f 266/430/472 277/434/476 264/423/465 259/416/458
f 269/432/474 278/435/477 272/436/478 265/433/475
f 273/437/479 279/438/480 270/429/471 263/428/470
f 268/422/464 288/439/481 267/421/463 258/420/462
f 264/423/465 277/434/476 274/440/482 269/432/474
f 275/441/483 276/431/473 261/419/461 270/429/471
f 267/421/463 288/439/481 271/426/468 260/425/467
f 276/431/473 288/439/481 268/422/464 262/427/469
f 274/440/482 283/442/484 278/435/477 269/432/474
f 271/426/468 288/439/481 277/434/476 266/430/472
f 279/438/480 286/443/485 275/441/483 270/429/471
f 280/444/486 282/445/487 272/436/478 278/435/477
f 281/446/488 285/447/489 279/438/480 273/437/479
f 277/434/476 288/439/481 283/442/484 274/440/482
f 278/435/477 283/442/484 287/448/490 280/444/486
f 286/443/485 288/439/481 276/431/473 275/441/483
f 280/444/486 291/449/491 284/450/492 282/445/487
f 289/451/493 286/443/485 279/438/480 285/447/489
f 290/452/494 292/453/495 285/447/489 281/446/488
f 287/448/490 293/454/496 291/449/491 280/444/486
f 292/453/495 296/455/497 289/451/493 285/447/489
f 283/442/484 288/439/481 293/454/496 287/448/490
f 294/456/498 295/457/499 284/450/492 291/449/491
f 296/455/497 288/439/481 286/443/485 289/451/493
f 298/458/500 294/456/498 291/449/491 293/454/496
f 297/459/501 300/460/502 292/453/495 290/452/494
f 292/453/495 300/460/502 299/461/503 296/455/497
f 301/462/504 303/463/505 295/457/499 294/456/498
f 298/458/500 302/464/506 301/462/504 294/456/498
f 293/454/496 288/439/481 302/464/506 298/458/500
f 304/465/507 288/439/481 296/455/497 299/461/503
f 305/466/508 306/467/509 300/460/502 297/459/501
f 306/467/509 304/465/507 299/461/503 300/460/502
f 307/468/510 310/469/511 303/463/505 301/462/504
f 308/470/512 307/468/510 301/462/504 302/464/506
f 309/471/513 308/470/512 302/464/506 288/439/481
f 306/467/509 313/472/514 311/473/515 304/465/507
f 304/465/507 311/473/515 312/474/516 288/439/481
f 305/466/508 314/475/517 313/472/514 306/467/509
f 308/470/512 309/471/513 315/476/518 307/468/510
f 315/476/518 317/477/519 310/469/511 307/468/510
f 316/478/520 318/479/521 309/471/513 288/439/481
f 318/479/521 321/480/522 315/476/518 309/471/513
f 319/481/523 312/474/516 311/473/515 313/472/514
f 314/475/517 320/482/524 319/481/523 313/472/514
f 321/480/522 325/483/525 317/477/519 315/476/518
f 323/484/526 336/485/527 322/486/528 288/439/481
f 319/481/523 330/487/529 324/488/530 312/474/516
f 327/489/531 339/490/532 326/491/533 288/439/481
f 322/486/528 341/492/534 328/493/535 288/439/481
f 329/494/536 321/480/522 318/479/521 316/478/520
f 320/482/524 332/495/537 330/487/529 319/481/523
f 331/496/538 344/497/539 327/489/531 288/439/481
f 328/493/535 345/498/540 331/496/538 288/439/481
f 324/488/530 330/487/529 333/499/541 323/484/526
f 334/500/542 338/501/543 329/494/536 316/478/520
f 321/480/522 329/494/536 335/502/544 325/483/525
f 333/499/541 342/503/545 336/485/527 323/484/526
f 337/504/546 333/499/541 330/487/529 332/495/537
f 340/505/547 338/501/543 334/500/542 326/491/533
f 338/501/543 346/506/548 335/502/544 329/494/536
f 336/485/527 342/503/545 343/507/549 322/486/528
f 339/490/532 350/508/550 340/505/547 326/491/533
f 343/507/549 352/509/551 341/492/534 322/486/528
f 337/504/546 348/510/552 342/503/545 333/499/541
f 347/511/553 350/508/550 339/490/532 327/489/531
f 340/505/547 353/512/554 346/506/548 338/501/543
f 341/492/534 352/509/551 349/513/555 328/493/535
f 344/497/539 355/514/556 347/511/553 327/489/531
f 349/513/555 356/515/557 345/498/540 328/493/535
f 351/516/558 355/514/556 344/497/539 331/496/538
f 345/498/540 356/515/557 351/516/558 331/496/538
f 354/517/559 343/507/549 342/503/545 348/510/552
f 350/508/550 357/518/560 353/512/554 340/505/547
f 354/517/559 358/519/561 352/509/551 343/507/549
f 359/520/562 357/518/560 350/508/550 347/511/553
f 352/509/551 358/519/561 360/521/563 349/513/555
f 360/521/563 362/522/564 356/515/557 349/513/555
f 361/523/565 359/520/562 347/511/553 355/514/556
f 362/522/564 363/524/566 351/516/558 356/515/557
f 363/524/566 361/523/565 355/514/556 351/516/558
f 288/439/481 312/474/516 324/488/530 323/484/526
f 288/439/481 326/491/533 334/500/542 316/478/520
s 10
f 243/525/567 244/526/568 366/285/569 365/284/570
f 245/527/571 243/525/567 365/284/570 369/288/572
f 244/526/568 246/528/573 370/289/574 366/285/569
f 246/528/573 249/529/575 372/291/576 370/289/574
f 248/530/577 245/527/578 369/288/579 374/293/580
f 249/529/575 253/531/581 376/295/582 372/291/576
f 255/532/583 248/530/577 374/293/580 378/297/584
f 253/531/581 257/533/585 383/302/586 376/295/582
f 263/534/587 255/532/583 378/297/584 388/307/588
f 257/533/585 265/535/589 393/312/590 383/302/586
f 265/535/589 272/536/591 395/314/592 393/312/590
f 273/537/593 263/534/587 388/307/588 397/316/594
f 272/536/591 282/538/595 405/324/596 395/314/592
f 281/539/597 273/537/593 397/316/594 406/325/598
f 282/538/595 284/540/599 409/328/600 405/324/596
f 290/541/601 281/539/597 406/325/598 412/331/602
f 284/540/599 295/542/603 417/336/604 409/328/600
f 297/543/605 290/541/601 412/331/602 419/338/606
f 295/542/603 303/544/607 423/342/608 417/336/604
f 305/545/609 297/543/605 419/338/606 426/345/610
f 303/544/607 310/546/611 429/348/612 423/342/608
f 314/547/613 305/545/609 426/345/610 435/354/614
f 310/546/611 317/548/615 437/356/616 429/348/612
f 320/549/617 314/547/613 435/354/614 442/361/618
f 317/548/615 325/550/619 443/362/620 437/356/616
f 332/551/621 320/549/617 442/361/618 455/374/622
f 325/550/619 335/552/623 462/381/624 443/362/620
f 337/553/625 332/551/621 455/374/622 464/383/626
f 335/552/623 346/554/627 466/385/628 462/381/624
f 348/555/629 337/553/625 464/383/626 470/389/630
f 346/554/627 353/556/631 472/391/632 466/385/628
f 354/557/633 348/555/629 470/389/630 477/396/634
f 353/556/631 357/558/635 478/397/636 472/391/632
f 358/559/637 354/557/633 477/396/634 479/398/638
f 357/558/635 359/560/639 480/399/640 478/397/636
f 360/561/641 358/559/637 479/398/638 481/400/642
f 362/562/643 360/561/641 481/400/642 482/401/644
f 359/560/639 361/563/645 483/402/646 480/399/640
f 363/564/647 362/562/643 482/401/644 484/403/648
f 361/563/645 363/564/647 484/403/648 483/402/646
